<mxfile host="app.diagrams.net" agent="Mozilla/5.0 (Windows NT 10.0; Win64; x64) AppleWebKit/537.36 (KHTML, like Gecko) Chrome/134.0.0.0 Safari/537.36 Edg/134.0.0.0" version="26.2.4">
  <diagram name="Seite-1" id="iz2d1_FO7utC4rsbW3Fa">
    <mxGraphModel dx="472" dy="690" grid="1" gridSize="10" guides="1" tooltips="1" connect="1" arrows="1" fold="1" page="1" pageScale="1" pageWidth="827" pageHeight="1169" math="0" shadow="0">
      <root>
        <mxCell id="0" />
        <mxCell id="1" parent="0" />
        <mxCell id="dr_8-6ywHtxhM9YwodCs-1" value="" style="ellipse;shape=cloud;whiteSpace=wrap;html=1;" vertex="1" parent="1">
          <mxGeometry x="60" y="230" width="660" height="410" as="geometry" />
        </mxCell>
        <mxCell id="dr_8-6ywHtxhM9YwodCs-12" style="edgeStyle=orthogonalEdgeStyle;rounded=0;orthogonalLoop=1;jettySize=auto;html=1;entryX=0;entryY=0.5;entryDx=0;entryDy=0;exitX=0.431;exitY=0.972;exitDx=0;exitDy=0;exitPerimeter=0;" edge="1" parent="1" source="dr_8-6ywHtxhM9YwodCs-2" target="dr_8-6ywHtxhM9YwodCs-4">
          <mxGeometry relative="1" as="geometry">
            <Array as="points">
              <mxPoint x="260" y="408" />
              <mxPoint x="260" y="530" />
            </Array>
          </mxGeometry>
        </mxCell>
        <mxCell id="dr_8-6ywHtxhM9YwodCs-2" value="lib-service&lt;br&gt;&lt;div&gt;&lt;br/&gt;&lt;/div&gt;" style="rounded=0;whiteSpace=wrap;html=1;" vertex="1" parent="1">
          <mxGeometry x="210" y="350" width="110" height="60" as="geometry" />
        </mxCell>
        <mxCell id="dr_8-6ywHtxhM9YwodCs-3" value="book-service&lt;br&gt;&lt;div&gt;&lt;br/&gt;&lt;/div&gt;" style="rounded=0;whiteSpace=wrap;html=1;" vertex="1" parent="1">
          <mxGeometry x="418" y="350" width="110" height="60" as="geometry" />
        </mxCell>
        <mxCell id="dr_8-6ywHtxhM9YwodCs-4" value="user-service&lt;br&gt;&lt;div&gt;&lt;br/&gt;&lt;/div&gt;" style="rounded=0;whiteSpace=wrap;html=1;" vertex="1" parent="1">
          <mxGeometry x="420" y="500" width="110" height="60" as="geometry" />
        </mxCell>
        <mxCell id="dr_8-6ywHtxhM9YwodCs-5" value="books" style="shape=cylinder3;whiteSpace=wrap;html=1;boundedLbl=1;backgroundOutline=1;size=6.969696969697054;" vertex="1" parent="1">
          <mxGeometry x="560" y="365" width="40" height="30" as="geometry" />
        </mxCell>
        <mxCell id="dr_8-6ywHtxhM9YwodCs-6" value="user" style="shape=cylinder3;whiteSpace=wrap;html=1;boundedLbl=1;backgroundOutline=1;size=6.969696969697054;" vertex="1" parent="1">
          <mxGeometry x="560" y="510" width="40" height="30" as="geometry" />
        </mxCell>
        <mxCell id="dr_8-6ywHtxhM9YwodCs-9" style="edgeStyle=orthogonalEdgeStyle;rounded=0;orthogonalLoop=1;jettySize=auto;html=1;entryX=0;entryY=0;entryDx=0;entryDy=19.015151515151473;entryPerimeter=0;" edge="1" parent="1" source="dr_8-6ywHtxhM9YwodCs-4" target="dr_8-6ywHtxhM9YwodCs-6">
          <mxGeometry relative="1" as="geometry" />
        </mxCell>
        <mxCell id="dr_8-6ywHtxhM9YwodCs-10" style="edgeStyle=orthogonalEdgeStyle;rounded=0;orthogonalLoop=1;jettySize=auto;html=1;entryX=0.101;entryY=0.505;entryDx=0;entryDy=0;entryPerimeter=0;" edge="1" parent="1" source="dr_8-6ywHtxhM9YwodCs-3" target="dr_8-6ywHtxhM9YwodCs-5">
          <mxGeometry relative="1" as="geometry" />
        </mxCell>
        <mxCell id="dr_8-6ywHtxhM9YwodCs-11" style="edgeStyle=orthogonalEdgeStyle;rounded=0;orthogonalLoop=1;jettySize=auto;html=1;entryX=0;entryY=0.5;entryDx=0;entryDy=0;" edge="1" parent="1" source="dr_8-6ywHtxhM9YwodCs-2" target="dr_8-6ywHtxhM9YwodCs-3">
          <mxGeometry relative="1" as="geometry">
            <mxPoint x="420" y="391" as="targetPoint" />
          </mxGeometry>
        </mxCell>
        <mxCell id="dr_8-6ywHtxhM9YwodCs-14" value="" style="shape=image;verticalLabelPosition=bottom;labelBackgroundColor=default;verticalAlign=top;aspect=fixed;imageAspect=0;image=data:image/png,iVBORw0KGgoAAAANSUhEUgAAAHcAAABkCAIAAAAzGTjoAAAHLklEQVR4Ae2d/U8cRRjH+48QrbFNa1KrpmrUxsRfTIzGl9iosWo1lKa8BEpA2xCapo20YgWxtSmlNERaYiMlBSFKQZE28VIkkoO26fVFuEJrOehxrxz3/ijZu2FZbmdndme3d7tD7oe5m9nZ2c9+77lnnnl2WAX8T38Cq/Q/BT8DcMpGiIBT5pSNIGDEObiWOWUjCBhxDq5lTtkIAkacg2uZU8YSCIbB5ogpvnyhJLYbIypzWMujznhevlvxNXQjZgRI7Dk4ZSweRpWcMiOQ2G44ZSweRpWcMiOQ2G44ZSweRpWcMiOQ2G44ZSweRpWcMiOQ2G44ZSweRpWcMiOQ2G44ZSweRpU5TJlHixhpwCzd5LCWc+gW6EjZcS9e1xlSfAXDKVxOV0KxcV1n6IE/FS+e9iZJ2t99kHjo90NHyl1/RRSDv3n57mlvitrFq1GS9o57cYEajy8vcuCU0XeIaxmh0LHAKesIF3WtI+XuYSK77EJ2+RqRXb75b8ouX7lDtu53k+W6n1/VWq2OlE1pl7c1+F/d50W/wEit+IKOlH8m8zGWtEzmY9xI+xhjhGvY7LT8059h5AV1Xo7gyYprOWUxDVw5FIGny+cQ5bx8d31XCHeAqE5HyiazGLUdITFioVzdNi+CKVvklGXRiCuicVhXlDnD5vivC+KWGcs6UjaTj9Fvx/k/Q0qmX0fKNkdsS61P8eUJpmbYoxNxxcZban1T6bjE+HSCpP31qZTnl1FlhB/uag6sNBfok2fK59wBXDaejpQJLyAnmj1Ztux3D/FFhaLGAOZCOGUMnFSVcyaBaGIK1yZlvzScsjLlriGiSWxlS1CuLwrKPwws+eSYWxpOT2izzZO7M0skyQsjUQmsxt4FzPWiqnVF7rhMKJtTlvpnKykfPp/BU0ZwxQWbIy2x5TeKgnIrmZZR/9nmyU2SabnPLtXyvh/nxSgx5brOzLNBCsqWtRhVZ4IYsuKqgmOZPQ0Kyq1/ENllpOUeysjnJbLI56105PMqZeSTUMv9K7Rc006q5ZerPB22SG1H6LMj/tf2e5//3PP4zkWLREHZslo+PUgkL7GoJWVOWfnXz+aISajRvuWUlSmHIvDYDmkzKtCcshTfSk8OALbW+6mwShpTULasJwcAhF6pBC56S0HZsr9+AJBIwqYKD6JGW+CUiSwGAPw2igsx47lTULaPx0jy0pC/nG15ct55ory62/dlghEAxSdwUWYMaArKCJ8FC05XoqRJJWK6WYkF4d6+nzgzGP7gGx9GpyRVltayJ5iccCVG/on9PhYVdoDot0fbLobruxanyBuV1kdI+AptKCi/8aXWW0o+LJO1pKD8ziFOWeqQKKph8x5PZUuQgvJ7X3PKspTLTwWRA9bUt9Bvj16fii+kk7woKH/0raZZpuJtz90GG8vm8K4BBeWiRvWuTO4SJBm5YsIcBeW9baTBbJKRmabNowXuGR8u5QWAZs/aI92ki4ymIUhyIWXNmVehxDaEQsvnbERpCSQjM1MbkoxxCsrDt7QuGZgJrnAt279XFjKdxZj1Jc2HSeMVjTlls7ZUWgwA2FCqkJSncdC5dfgnDX4xSkyZwmIAwLYG7jIvTUwcd4mETGcxAIC7GejbVnqSyCILAqfTsvY1czTKXC9QPURPRxkAhGSZXGekcfw17UQP7SBLTU35Y8tHM56t9KAwEOKIL1BTPtVPlMyrUSzZfHjvSDrUhkcrqqWmPOEiyrXOZkxaxvbpd6TemwgyTRwDHfb2QYsGmtcXz6E9UxANkgK1lgHAsgGN7mFqWyHcAzWUwzFYX2y5SWBJE4WDLBG4GsoA8FWHtWLNL+32aPkvBiop+0LJJ0qsIuc1hW6ND8CqpLw42+6xSlD/l79VmmNkN9RTXlixX4QWDylrj91/lm6ah8iKC+opW8HZ+LBOjXcs5iuUNVEGgPyjpo2Fvrjbo24vKPaU3YGkZJ+ZrP3uUw3sqV1z49OyKbYrOeI/0aplABi8oj59murKDWu8qcLjnGGGmDqKL3fHDpw1j/v8XKVncpYlYmaUAeD9w2YIbrx+wDurlMIiJzXM5wwshtB7JAY7j+d2ilf+UX9Y+qQ7Bh1FFTPKwjmrTpM+GG6YkSU50eodbpKttCi4Lm/KmDIAVOdaOt0LX3js45n3tVjOSv079pQBoHUgvFrbI7UkAmTSpuBYAG1mrp6i0pG6UAYA+3jslWovExA6dbK20N1h0xqgUMKbqteLstB9U1+WLhLubZvXw5eQg64v5f/TkSZcibdqssjJq2gJUqVSyIGj+lx3ygCQTML5y5HNe9Q/x6zdaDyy3V3WHJhwMZ5uELI2gjIaSoct8m6t0breUDp3sH0e7VuJBmNkwVDKwoU5XYkTvQtb6/26pimtLXSXNAV61K6Hsr0HD4Gy+AIujERLTwbWFC4lUmo0Dm/W+A6dmx8Y02cOJx46Tfk/whCUPnPV6cUAAAAASUVORK5CYII=;" vertex="1" parent="1">
          <mxGeometry x="216" y="364.5" width="17.85" height="15" as="geometry" />
        </mxCell>
        <mxCell id="dr_8-6ywHtxhM9YwodCs-16" value="" style="shape=image;verticalLabelPosition=bottom;labelBackgroundColor=default;verticalAlign=top;aspect=fixed;imageAspect=0;image=data:image/png,iVBORw0KGgoAAAANSUhEUgAAAHcAAABkCAIAAAAzGTjoAAAHLklEQVR4Ae2d/U8cRRjH+48QrbFNa1KrpmrUxsRfTIzGl9iosWo1lKa8BEpA2xCapo20YgWxtSmlNERaYiMlBSFKQZE28VIkkoO26fVFuEJrOehxrxz3/ijZu2FZbmdndme3d7tD7oe5m9nZ2c9+77lnnnl2WAX8T38Cq/Q/BT8DcMpGiIBT5pSNIGDEObiWOWUjCBhxDq5lTtkIAkacg2uZU8YSCIbB5ogpvnyhJLYbIypzWMujznhevlvxNXQjZgRI7Dk4ZSweRpWcMiOQ2G44ZSweRpWcMiOQ2G44ZSweRpWcMiOQ2G44ZSweRpWcMiOQ2G44ZSweRpWcMiOQ2G44ZSweRpU5TJlHixhpwCzd5LCWc+gW6EjZcS9e1xlSfAXDKVxOV0KxcV1n6IE/FS+e9iZJ2t99kHjo90NHyl1/RRSDv3n57mlvitrFq1GS9o57cYEajy8vcuCU0XeIaxmh0LHAKesIF3WtI+XuYSK77EJ2+RqRXb75b8ouX7lDtu53k+W6n1/VWq2OlE1pl7c1+F/d50W/wEit+IKOlH8m8zGWtEzmY9xI+xhjhGvY7LT8059h5AV1Xo7gyYprOWUxDVw5FIGny+cQ5bx8d31XCHeAqE5HyiazGLUdITFioVzdNi+CKVvklGXRiCuicVhXlDnD5vivC+KWGcs6UjaTj9Fvx/k/Q0qmX0fKNkdsS61P8eUJpmbYoxNxxcZban1T6bjE+HSCpP31qZTnl1FlhB/uag6sNBfok2fK59wBXDaejpQJLyAnmj1Ztux3D/FFhaLGAOZCOGUMnFSVcyaBaGIK1yZlvzScsjLlriGiSWxlS1CuLwrKPwws+eSYWxpOT2izzZO7M0skyQsjUQmsxt4FzPWiqnVF7rhMKJtTlvpnKykfPp/BU0ZwxQWbIy2x5TeKgnIrmZZR/9nmyU2SabnPLtXyvh/nxSgx5brOzLNBCsqWtRhVZ4IYsuKqgmOZPQ0Kyq1/ENllpOUeysjnJbLI56105PMqZeSTUMv9K7Rc006q5ZerPB22SG1H6LMj/tf2e5//3PP4zkWLREHZslo+PUgkL7GoJWVOWfnXz+aISajRvuWUlSmHIvDYDmkzKtCcshTfSk8OALbW+6mwShpTULasJwcAhF6pBC56S0HZsr9+AJBIwqYKD6JGW+CUiSwGAPw2igsx47lTULaPx0jy0pC/nG15ct55ory62/dlghEAxSdwUWYMaArKCJ8FC05XoqRJJWK6WYkF4d6+nzgzGP7gGx9GpyRVltayJ5iccCVG/on9PhYVdoDot0fbLobruxanyBuV1kdI+AptKCi/8aXWW0o+LJO1pKD8ziFOWeqQKKph8x5PZUuQgvJ7X3PKspTLTwWRA9bUt9Bvj16fii+kk7woKH/0raZZpuJtz90GG8vm8K4BBeWiRvWuTO4SJBm5YsIcBeW9baTBbJKRmabNowXuGR8u5QWAZs/aI92ki4ymIUhyIWXNmVehxDaEQsvnbERpCSQjM1MbkoxxCsrDt7QuGZgJrnAt279XFjKdxZj1Jc2HSeMVjTlls7ZUWgwA2FCqkJSncdC5dfgnDX4xSkyZwmIAwLYG7jIvTUwcd4mETGcxAIC7GejbVnqSyCILAqfTsvY1czTKXC9QPURPRxkAhGSZXGekcfw17UQP7SBLTU35Y8tHM56t9KAwEOKIL1BTPtVPlMyrUSzZfHjvSDrUhkcrqqWmPOEiyrXOZkxaxvbpd6TemwgyTRwDHfb2QYsGmtcXz6E9UxANkgK1lgHAsgGN7mFqWyHcAzWUwzFYX2y5SWBJE4WDLBG4GsoA8FWHtWLNL+32aPkvBiop+0LJJ0qsIuc1hW6ND8CqpLw42+6xSlD/l79VmmNkN9RTXlixX4QWDylrj91/lm6ah8iKC+opW8HZ+LBOjXcs5iuUNVEGgPyjpo2Fvrjbo24vKPaU3YGkZJ+ZrP3uUw3sqV1z49OyKbYrOeI/0aplABi8oj59murKDWu8qcLjnGGGmDqKL3fHDpw1j/v8XKVncpYlYmaUAeD9w2YIbrx+wDurlMIiJzXM5wwshtB7JAY7j+d2ilf+UX9Y+qQ7Bh1FFTPKwjmrTpM+GG6YkSU50eodbpKttCi4Lm/KmDIAVOdaOt0LX3js45n3tVjOSv079pQBoHUgvFrbI7UkAmTSpuBYAG1mrp6i0pG6UAYA+3jslWovExA6dbK20N1h0xqgUMKbqteLstB9U1+WLhLubZvXw5eQg64v5f/TkSZcibdqssjJq2gJUqVSyIGj+lx3ygCQTML5y5HNe9Q/x6zdaDyy3V3WHJhwMZ5uELI2gjIaSoct8m6t0breUDp3sH0e7VuJBmNkwVDKwoU5XYkTvQtb6/26pimtLXSXNAV61K6Hsr0HD4Gy+AIujERLTwbWFC4lUmo0Dm/W+A6dmx8Y02cOJx46Tfk/whCUPnPV6cUAAAAASUVORK5CYII=;" vertex="1" parent="1">
          <mxGeometry x="421" y="365" width="17.85" height="15" as="geometry" />
        </mxCell>
        <mxCell id="dr_8-6ywHtxhM9YwodCs-17" value="" style="shape=image;verticalLabelPosition=bottom;labelBackgroundColor=default;verticalAlign=top;aspect=fixed;imageAspect=0;image=data:image/png,iVBORw0KGgoAAAANSUhEUgAAAHcAAABkCAIAAAAzGTjoAAAHLklEQVR4Ae2d/U8cRRjH+48QrbFNa1KrpmrUxsRfTIzGl9iosWo1lKa8BEpA2xCapo20YgWxtSmlNERaYiMlBSFKQZE28VIkkoO26fVFuEJrOehxrxz3/ijZu2FZbmdndme3d7tD7oe5m9nZ2c9+77lnnnl2WAX8T38Cq/Q/BT8DcMpGiIBT5pSNIGDEObiWOWUjCBhxDq5lTtkIAkacg2uZU8YSCIbB5ogpvnyhJLYbIypzWMujznhevlvxNXQjZgRI7Dk4ZSweRpWcMiOQ2G44ZSweRpWcMiOQ2G44ZSweRpWcMiOQ2G44ZSweRpWcMiOQ2G44ZSweRpWcMiOQ2G44ZSweRpU5TJlHixhpwCzd5LCWc+gW6EjZcS9e1xlSfAXDKVxOV0KxcV1n6IE/FS+e9iZJ2t99kHjo90NHyl1/RRSDv3n57mlvitrFq1GS9o57cYEajy8vcuCU0XeIaxmh0LHAKesIF3WtI+XuYSK77EJ2+RqRXb75b8ouX7lDtu53k+W6n1/VWq2OlE1pl7c1+F/d50W/wEit+IKOlH8m8zGWtEzmY9xI+xhjhGvY7LT8059h5AV1Xo7gyYprOWUxDVw5FIGny+cQ5bx8d31XCHeAqE5HyiazGLUdITFioVzdNi+CKVvklGXRiCuicVhXlDnD5vivC+KWGcs6UjaTj9Fvx/k/Q0qmX0fKNkdsS61P8eUJpmbYoxNxxcZban1T6bjE+HSCpP31qZTnl1FlhB/uag6sNBfok2fK59wBXDaejpQJLyAnmj1Ztux3D/FFhaLGAOZCOGUMnFSVcyaBaGIK1yZlvzScsjLlriGiSWxlS1CuLwrKPwws+eSYWxpOT2izzZO7M0skyQsjUQmsxt4FzPWiqnVF7rhMKJtTlvpnKykfPp/BU0ZwxQWbIy2x5TeKgnIrmZZR/9nmyU2SabnPLtXyvh/nxSgx5brOzLNBCsqWtRhVZ4IYsuKqgmOZPQ0Kyq1/ENllpOUeysjnJbLI56105PMqZeSTUMv9K7Rc006q5ZerPB22SG1H6LMj/tf2e5//3PP4zkWLREHZslo+PUgkL7GoJWVOWfnXz+aISajRvuWUlSmHIvDYDmkzKtCcshTfSk8OALbW+6mwShpTULasJwcAhF6pBC56S0HZsr9+AJBIwqYKD6JGW+CUiSwGAPw2igsx47lTULaPx0jy0pC/nG15ct55ory62/dlghEAxSdwUWYMaArKCJ8FC05XoqRJJWK6WYkF4d6+nzgzGP7gGx9GpyRVltayJ5iccCVG/on9PhYVdoDot0fbLobruxanyBuV1kdI+AptKCi/8aXWW0o+LJO1pKD8ziFOWeqQKKph8x5PZUuQgvJ7X3PKspTLTwWRA9bUt9Bvj16fii+kk7woKH/0raZZpuJtz90GG8vm8K4BBeWiRvWuTO4SJBm5YsIcBeW9baTBbJKRmabNowXuGR8u5QWAZs/aI92ki4ymIUhyIWXNmVehxDaEQsvnbERpCSQjM1MbkoxxCsrDt7QuGZgJrnAt279XFjKdxZj1Jc2HSeMVjTlls7ZUWgwA2FCqkJSncdC5dfgnDX4xSkyZwmIAwLYG7jIvTUwcd4mETGcxAIC7GejbVnqSyCILAqfTsvY1czTKXC9QPURPRxkAhGSZXGekcfw17UQP7SBLTU35Y8tHM56t9KAwEOKIL1BTPtVPlMyrUSzZfHjvSDrUhkcrqqWmPOEiyrXOZkxaxvbpd6TemwgyTRwDHfb2QYsGmtcXz6E9UxANkgK1lgHAsgGN7mFqWyHcAzWUwzFYX2y5SWBJE4WDLBG4GsoA8FWHtWLNL+32aPkvBiop+0LJJ0qsIuc1hW6ND8CqpLw42+6xSlD/l79VmmNkN9RTXlixX4QWDylrj91/lm6ah8iKC+opW8HZ+LBOjXcs5iuUNVEGgPyjpo2Fvrjbo24vKPaU3YGkZJ+ZrP3uUw3sqV1z49OyKbYrOeI/0aplABi8oj59murKDWu8qcLjnGGGmDqKL3fHDpw1j/v8XKVncpYlYmaUAeD9w2YIbrx+wDurlMIiJzXM5wwshtB7JAY7j+d2ilf+UX9Y+qQ7Bh1FFTPKwjmrTpM+GG6YkSU50eodbpKttCi4Lm/KmDIAVOdaOt0LX3js45n3tVjOSv079pQBoHUgvFrbI7UkAmTSpuBYAG1mrp6i0pG6UAYA+3jslWovExA6dbK20N1h0xqgUMKbqteLstB9U1+WLhLubZvXw5eQg64v5f/TkSZcibdqssjJq2gJUqVSyIGj+lx3ygCQTML5y5HNe9Q/x6zdaDyy3V3WHJhwMZ5uELI2gjIaSoct8m6t0breUDp3sH0e7VuJBmNkwVDKwoU5XYkTvQtb6/26pimtLXSXNAV61K6Hsr0HD4Gy+AIujERLTwbWFC4lUmo0Dm/W+A6dmx8Y02cOJx46Tfk/whCUPnPV6cUAAAAASUVORK5CYII=;" vertex="1" parent="1">
          <mxGeometry x="422" y="515" width="17.85" height="15" as="geometry" />
        </mxCell>
        <mxCell id="dr_8-6ywHtxhM9YwodCs-18" value="" style="shape=image;verticalLabelPosition=bottom;labelBackgroundColor=default;verticalAlign=top;aspect=fixed;imageAspect=0;image=https://static-00.iconduck.com/assets.00/spring-icon-2048x2045-yufnoc34.png;" vertex="1" parent="1">
          <mxGeometry x="506.46" y="537.5" width="21.54" height="21.5" as="geometry" />
        </mxCell>
        <mxCell id="dr_8-6ywHtxhM9YwodCs-21" value="" style="shape=image;verticalLabelPosition=bottom;labelBackgroundColor=default;verticalAlign=top;aspect=fixed;imageAspect=0;image=https://cdn-icons-png.flaticon.com/512/5968/5968350.png;" vertex="1" parent="1">
          <mxGeometry x="506.46" y="389" width="20" height="20" as="geometry" />
        </mxCell>
        <mxCell id="dr_8-6ywHtxhM9YwodCs-22" value="" style="shape=image;verticalLabelPosition=bottom;labelBackgroundColor=default;verticalAlign=top;aspect=fixed;imageAspect=0;image=https://upload.wikimedia.org/wikiversity/en/8/8c/FastAPI_logo.png;" vertex="1" parent="1">
          <mxGeometry x="320" y="370" width="27.73" height="10" as="geometry" />
        </mxCell>
        <mxCell id="dr_8-6ywHtxhM9YwodCs-24" value="" style="shape=image;verticalLabelPosition=bottom;labelBackgroundColor=default;verticalAlign=top;aspect=fixed;imageAspect=0;image=https://static-00.iconduck.com/assets.00/swagger-icon-2048x2048-563qbzey.png;" vertex="1" parent="1">
          <mxGeometry x="216" y="384" width="19" height="19" as="geometry" />
        </mxCell>
        <mxCell id="dr_8-6ywHtxhM9YwodCs-25" value="" style="shape=image;verticalLabelPosition=bottom;labelBackgroundColor=default;verticalAlign=top;aspect=fixed;imageAspect=0;image=https://upload.wikimedia.org/wikipedia/commons/thumb/a/a8/Microsoft_Azure_Logo.svg/2560px-Microsoft_Azure_Logo.svg.png;rotation=15;" vertex="1" parent="1">
          <mxGeometry x="360" y="240" width="122.53" height="35.33" as="geometry" />
        </mxCell>
        <mxCell id="dr_8-6ywHtxhM9YwodCs-26" value="Legend:" style="text;html=1;align=center;verticalAlign=middle;whiteSpace=wrap;rounded=0;" vertex="1" parent="1">
          <mxGeometry x="140" y="640" width="60" height="30" as="geometry" />
        </mxCell>
        <mxCell id="dr_8-6ywHtxhM9YwodCs-27" value="" style="shape=image;verticalLabelPosition=bottom;labelBackgroundColor=default;verticalAlign=top;aspect=fixed;imageAspect=0;image=https://static-00.iconduck.com/assets.00/spring-icon-2048x2045-yufnoc34.png;" vertex="1" parent="1">
          <mxGeometry x="200" y="670" width="21.54" height="21.5" as="geometry" />
        </mxCell>
        <mxCell id="dr_8-6ywHtxhM9YwodCs-28" value="" style="shape=image;verticalLabelPosition=bottom;labelBackgroundColor=default;verticalAlign=top;aspect=fixed;imageAspect=0;image=https://cdn-icons-png.flaticon.com/512/5968/5968350.png;" vertex="1" parent="1">
          <mxGeometry x="200.76999999999998" y="700" width="20" height="20" as="geometry" />
        </mxCell>
        <mxCell id="dr_8-6ywHtxhM9YwodCs-29" value="" style="shape=image;verticalLabelPosition=bottom;labelBackgroundColor=default;verticalAlign=top;aspect=fixed;imageAspect=0;image=https://cdn-icons-png.flaticon.com/512/5968/5968350.png;" vertex="1" parent="1">
          <mxGeometry x="296" y="387" width="20" height="20" as="geometry" />
        </mxCell>
        <mxCell id="dr_8-6ywHtxhM9YwodCs-30" value="" style="shape=image;verticalLabelPosition=bottom;labelBackgroundColor=default;verticalAlign=top;aspect=fixed;imageAspect=0;image=https://static-00.iconduck.com/assets.00/swagger-icon-2048x2048-563qbzey.png;" vertex="1" parent="1">
          <mxGeometry x="202.54" y="730" width="19" height="19" as="geometry" />
        </mxCell>
        <mxCell id="dr_8-6ywHtxhM9YwodCs-31" value="" style="shape=image;verticalLabelPosition=bottom;labelBackgroundColor=default;verticalAlign=top;aspect=fixed;imageAspect=0;image=data:image/png,iVBORw0KGgoAAAANSUhEUgAAAHcAAABkCAIAAAAzGTjoAAAHLklEQVR4Ae2d/U8cRRjH+48QrbFNa1KrpmrUxsRfTIzGl9iosWo1lKa8BEpA2xCapo20YgWxtSmlNERaYiMlBSFKQZE28VIkkoO26fVFuEJrOehxrxz3/ijZu2FZbmdndme3d7tD7oe5m9nZ2c9+77lnnnl2WAX8T38Cq/Q/BT8DcMpGiIBT5pSNIGDEObiWOWUjCBhxDq5lTtkIAkacg2uZU8YSCIbB5ogpvnyhJLYbIypzWMujznhevlvxNXQjZgRI7Dk4ZSweRpWcMiOQ2G44ZSweRpWcMiOQ2G44ZSweRpWcMiOQ2G44ZSweRpWcMiOQ2G44ZSweRpWcMiOQ2G44ZSweRpU5TJlHixhpwCzd5LCWc+gW6EjZcS9e1xlSfAXDKVxOV0KxcV1n6IE/FS+e9iZJ2t99kHjo90NHyl1/RRSDv3n57mlvitrFq1GS9o57cYEajy8vcuCU0XeIaxmh0LHAKesIF3WtI+XuYSK77EJ2+RqRXb75b8ouX7lDtu53k+W6n1/VWq2OlE1pl7c1+F/d50W/wEit+IKOlH8m8zGWtEzmY9xI+xhjhGvY7LT8059h5AV1Xo7gyYprOWUxDVw5FIGny+cQ5bx8d31XCHeAqE5HyiazGLUdITFioVzdNi+CKVvklGXRiCuicVhXlDnD5vivC+KWGcs6UjaTj9Fvx/k/Q0qmX0fKNkdsS61P8eUJpmbYoxNxxcZban1T6bjE+HSCpP31qZTnl1FlhB/uag6sNBfok2fK59wBXDaejpQJLyAnmj1Ztux3D/FFhaLGAOZCOGUMnFSVcyaBaGIK1yZlvzScsjLlriGiSWxlS1CuLwrKPwws+eSYWxpOT2izzZO7M0skyQsjUQmsxt4FzPWiqnVF7rhMKJtTlvpnKykfPp/BU0ZwxQWbIy2x5TeKgnIrmZZR/9nmyU2SabnPLtXyvh/nxSgx5brOzLNBCsqWtRhVZ4IYsuKqgmOZPQ0Kyq1/ENllpOUeysjnJbLI56105PMqZeSTUMv9K7Rc006q5ZerPB22SG1H6LMj/tf2e5//3PP4zkWLREHZslo+PUgkL7GoJWVOWfnXz+aISajRvuWUlSmHIvDYDmkzKtCcshTfSk8OALbW+6mwShpTULasJwcAhF6pBC56S0HZsr9+AJBIwqYKD6JGW+CUiSwGAPw2igsx47lTULaPx0jy0pC/nG15ct55ory62/dlghEAxSdwUWYMaArKCJ8FC05XoqRJJWK6WYkF4d6+nzgzGP7gGx9GpyRVltayJ5iccCVG/on9PhYVdoDot0fbLobruxanyBuV1kdI+AptKCi/8aXWW0o+LJO1pKD8ziFOWeqQKKph8x5PZUuQgvJ7X3PKspTLTwWRA9bUt9Bvj16fii+kk7woKH/0raZZpuJtz90GG8vm8K4BBeWiRvWuTO4SJBm5YsIcBeW9baTBbJKRmabNowXuGR8u5QWAZs/aI92ki4ymIUhyIWXNmVehxDaEQsvnbERpCSQjM1MbkoxxCsrDt7QuGZgJrnAt279XFjKdxZj1Jc2HSeMVjTlls7ZUWgwA2FCqkJSncdC5dfgnDX4xSkyZwmIAwLYG7jIvTUwcd4mETGcxAIC7GejbVnqSyCILAqfTsvY1czTKXC9QPURPRxkAhGSZXGekcfw17UQP7SBLTU35Y8tHM56t9KAwEOKIL1BTPtVPlMyrUSzZfHjvSDrUhkcrqqWmPOEiyrXOZkxaxvbpd6TemwgyTRwDHfb2QYsGmtcXz6E9UxANkgK1lgHAsgGN7mFqWyHcAzWUwzFYX2y5SWBJE4WDLBG4GsoA8FWHtWLNL+32aPkvBiop+0LJJ0qsIuc1hW6ND8CqpLw42+6xSlD/l79VmmNkN9RTXlixX4QWDylrj91/lm6ah8iKC+opW8HZ+LBOjXcs5iuUNVEGgPyjpo2Fvrjbo24vKPaU3YGkZJ+ZrP3uUw3sqV1z49OyKbYrOeI/0aplABi8oj59murKDWu8qcLjnGGGmDqKL3fHDpw1j/v8XKVncpYlYmaUAeD9w2YIbrx+wDurlMIiJzXM5wwshtB7JAY7j+d2ilf+UX9Y+qQ7Bh1FFTPKwjmrTpM+GG6YkSU50eodbpKttCi4Lm/KmDIAVOdaOt0LX3js45n3tVjOSv079pQBoHUgvFrbI7UkAmTSpuBYAG1mrp6i0pG6UAYA+3jslWovExA6dbK20N1h0xqgUMKbqteLstB9U1+WLhLubZvXw5eQg64v5f/TkSZcibdqssjJq2gJUqVSyIGj+lx3ygCQTML5y5HNe9Q/x6zdaDyy3V3WHJhwMZ5uELI2gjIaSoct8m6t0breUDp3sH0e7VuJBmNkwVDKwoU5XYkTvQtb6/26pimtLXSXNAV61K6Hsr0HD4Gy+AIujERLTwbWFC4lUmo0Dm/W+A6dmx8Y02cOJx46Tfk/whCUPnPV6cUAAAAASUVORK5CYII=;" vertex="1" parent="1">
          <mxGeometry x="201.84" y="760" width="17.85" height="15" as="geometry" />
        </mxCell>
        <mxCell id="dr_8-6ywHtxhM9YwodCs-32" value="" style="shape=image;verticalLabelPosition=bottom;labelBackgroundColor=default;verticalAlign=top;aspect=fixed;imageAspect=0;image=https://upload.wikimedia.org/wikipedia/commons/thumb/a/a8/Microsoft_Azure_Logo.svg/2560px-Microsoft_Azure_Logo.svg.png;rotation=0;" vertex="1" parent="1">
          <mxGeometry x="177.35999999999999" y="820" width="69.36" height="20" as="geometry" />
        </mxCell>
        <mxCell id="dr_8-6ywHtxhM9YwodCs-33" value="" style="endArrow=none;html=1;rounded=0;entryX=0.5;entryY=1;entryDx=0;entryDy=0;" edge="1" parent="1" target="dr_8-6ywHtxhM9YwodCs-26">
          <mxGeometry width="50" height="50" relative="1" as="geometry">
            <mxPoint x="170" y="810" as="sourcePoint" />
            <mxPoint x="170" y="680" as="targetPoint" />
          </mxGeometry>
        </mxCell>
        <mxCell id="dr_8-6ywHtxhM9YwodCs-34" value="&lt;font style=&quot;font-size: 8px;&quot;&gt;Spring Boot&lt;/font&gt;" style="text;html=1;align=center;verticalAlign=middle;whiteSpace=wrap;rounded=0;" vertex="1" parent="1">
          <mxGeometry x="246.72" y="672.88" width="56.15" height="15.75" as="geometry" />
        </mxCell>
        <mxCell id="dr_8-6ywHtxhM9YwodCs-36" value="&lt;font style=&quot;font-size: 8px;&quot;&gt;Python&lt;/font&gt;" style="text;html=1;align=center;verticalAlign=middle;whiteSpace=wrap;rounded=0;" vertex="1" parent="1">
          <mxGeometry x="246.72" y="704.25" width="56.15" height="15.75" as="geometry" />
        </mxCell>
        <mxCell id="dr_8-6ywHtxhM9YwodCs-37" value="&lt;font style=&quot;font-size: 8px;&quot;&gt;Swagger-UI&lt;/font&gt;" style="text;html=1;align=center;verticalAlign=middle;whiteSpace=wrap;rounded=0;" vertex="1" parent="1">
          <mxGeometry x="246.72" y="731.63" width="56.15" height="15.75" as="geometry" />
        </mxCell>
        <mxCell id="dr_8-6ywHtxhM9YwodCs-38" value="&lt;font style=&quot;font-size: 8px;&quot;&gt;Docker&lt;/font&gt;" style="text;html=1;align=center;verticalAlign=middle;whiteSpace=wrap;rounded=0;" vertex="1" parent="1">
          <mxGeometry x="246.72" y="759.62" width="56.15" height="15.75" as="geometry" />
        </mxCell>
        <mxCell id="dr_8-6ywHtxhM9YwodCs-39" value="&lt;font style=&quot;font-size: 8px;&quot;&gt;Microsoft cloud service&lt;/font&gt;" style="text;html=1;align=center;verticalAlign=middle;whiteSpace=wrap;rounded=0;" vertex="1" parent="1">
          <mxGeometry x="251.14" y="824.25" width="90.31" height="15.75" as="geometry" />
        </mxCell>
        <mxCell id="dr_8-6ywHtxhM9YwodCs-40" value="" style="shape=image;verticalLabelPosition=bottom;labelBackgroundColor=default;verticalAlign=top;aspect=fixed;imageAspect=0;image=https://upload.wikimedia.org/wikiversity/en/8/8c/FastAPI_logo.png;" vertex="1" parent="1">
          <mxGeometry x="184.31" y="790" width="55.46" height="20" as="geometry" />
        </mxCell>
        <mxCell id="dr_8-6ywHtxhM9YwodCs-41" value="&lt;font style=&quot;font-size: 8px;&quot;&gt;FastAPI&lt;/font&gt;" style="text;html=1;align=center;verticalAlign=middle;whiteSpace=wrap;rounded=0;" vertex="1" parent="1">
          <mxGeometry x="246.72000000000003" y="790" width="56.15" height="15.75" as="geometry" />
        </mxCell>
      </root>
    </mxGraphModel>
  </diagram>
</mxfile>
